<?xml version="1.0" encoding="UTF-8" ?>
<!DOCTYPE svg PUBLIC "-//W3C//DTD SVG 1.1//EN" "http://www.w3.org/Graphics/SVG/1.1/DTD/svg11.dtd">
<svg width="1309pt" height="346pt" viewBox="0 0 1309 346" version="1.1" xmlns="http://www.w3.org/2000/svg">
<g id="#191c33ff">
<path fill="#191c33" opacity="1.00" d=" M 85.92 34.77 C 104.54 25.20 125.19 19.86 146.00 18.21 C 155.40 17.98 164.91 17.50 174.21 19.14 C 206.00 22.55 236.42 36.49 260.24 57.74 C 294.04 87.68 313.65 132.89 312.45 178.01 C 311.54 222.88 290.30 267.07 255.39 295.38 C 226.19 319.63 187.85 332.51 149.94 330.92 C 112.12 329.42 74.96 313.64 47.87 287.15 C 27.21 267.36 12.17 241.70 5.11 213.97 C 4.95 214.63 4.79 215.30 4.64 215.97 C 4.86 210.82 2.95 205.96 2.21 200.93 C 1.54 197.63 1.62 194.23 0.85 190.96 C 0.53 189.35 0.23 187.75 0.00 186.13 L 0.00 162.51 C 0.25 161.01 0.53 159.52 0.84 158.03 C 4.10 127.43 16.50 97.79 36.34 74.22 C 49.97 57.90 66.89 44.28 85.92 34.77 M 186.11 44.09 C 181.69 49.11 176.99 54.97 177.27 62.05 C 177.13 69.37 182.11 75.28 186.49 80.63 C 190.30 85.16 192.09 90.85 194.08 96.32 C 199.49 92.04 203.16 85.00 202.36 78.01 C 200.79 70.91 194.81 65.85 192.73 58.97 C 191.18 51.87 194.54 44.93 193.74 37.79 C 190.51 38.89 188.43 41.77 186.11 44.09 M 150.26 56.07 C 143.72 68.85 137.84 82.54 137.60 97.13 C 138.08 102.86 139.13 108.80 142.90 113.37 C 151.37 123.99 159.03 137.00 157.55 151.09 C 156.70 155.91 154.49 161.13 149.87 163.43 C 145.17 165.95 139.52 164.17 135.13 161.82 C 130.13 159.27 126.81 154.31 125.20 149.05 C 122.31 140.55 122.99 131.26 125.41 122.75 C 125.13 122.41 124.56 121.73 124.28 121.40 C 121.23 122.15 118.11 122.49 115.01 122.94 C 100.38 126.72 87.40 139.40 86.32 154.93 C 85.45 171.41 95.51 185.39 101.19 200.14 C 103.71 206.05 104.36 212.71 103.13 219.01 C 101.83 223.04 99.08 227.00 94.99 228.55 C 92.02 229.10 88.83 228.96 86.10 227.57 C 77.44 223.08 71.97 214.74 66.02 207.35 C 65.12 215.56 63.80 223.73 64.16 232.03 C 64.00 251.85 70.38 272.36 84.31 286.84 C 96.49 300.29 113.86 308.27 131.63 310.95 C 159.82 315.14 190.18 306.81 210.97 286.95 C 226.17 272.78 234.89 252.50 236.58 231.95 C 238.86 211.05 252.33 192.55 269.91 181.59 C 261.80 176.95 252.13 176.79 243.06 177.59 C 234.01 178.98 226.23 184.22 219.35 189.99 C 221.13 180.75 223.82 171.56 223.58 162.06 C 224.21 158.39 224.72 154.70 223.70 151.04 C 223.65 140.03 220.03 128.73 212.44 120.57 C 206.55 114.75 198.71 111.64 191.50 107.85 C 181.18 102.18 170.94 95.86 163.01 87.02 C 154.97 78.44 151.20 66.53 151.41 54.90 C 151.12 55.19 150.55 55.77 150.26 56.07 Z" />
<path fill="#191c33" opacity="1.00" d=" M 143.27 207.47 C 146.72 207.47 149.88 209.03 153.15 209.92 C 164.46 213.82 175.59 220.25 182.11 230.59 C 188.84 240.82 192.20 254.16 187.72 265.94 C 185.28 272.76 179.81 278.34 173.10 281.02 C 166.17 284.13 158.42 283.85 151.01 283.63 C 142.62 283.05 133.87 280.33 128.05 273.98 C 120.57 265.14 120.83 251.85 125.71 241.84 C 129.75 233.81 138.28 229.60 143.45 222.50 C 146.89 218.12 145.63 212.04 143.27 207.47 Z" />
</g>
<g id="#956866ff">
<path fill="#956866" opacity="1.00" d=" M 186.11 44.09 C 188.43 41.77 190.51 38.89 193.74 37.79 C 194.54 44.93 191.18 51.87 192.73 58.97 C 194.81 65.85 200.79 70.91 202.36 78.01 C 203.16 85.00 199.49 92.04 194.08 96.32 C 192.09 90.85 190.30 85.16 186.49 80.63 C 182.11 75.28 177.13 69.37 177.27 62.05 C 176.99 54.97 181.69 49.11 186.11 44.09 Z" />
<path fill="#956866" opacity="1.00" d=" M 150.26 56.07 C 150.55 55.77 151.12 55.19 151.41 54.90 C 151.20 66.53 154.97 78.44 163.01 87.02 C 170.94 95.86 181.18 102.18 191.50 107.85 C 198.71 111.64 206.55 114.75 212.44 120.57 C 220.03 128.73 223.65 140.03 223.70 151.04 C 224.72 154.70 224.21 158.39 223.58 162.06 C 223.82 171.56 221.13 180.75 219.35 189.99 C 226.23 184.22 234.01 178.98 243.06 177.59 C 252.13 176.79 261.80 176.95 269.91 181.59 C 252.33 192.55 238.86 211.05 236.58 231.95 C 234.89 252.50 226.17 272.78 210.97 286.95 C 190.18 306.81 159.82 315.14 131.63 310.95 C 113.86 308.27 96.49 300.29 84.31 286.84 C 70.38 272.36 64.00 251.85 64.16 232.03 C 63.80 223.73 65.12 215.56 66.02 207.35 C 71.97 214.74 77.44 223.08 86.10 227.57 C 88.83 228.96 92.02 229.10 94.99 228.55 C 99.08 227.00 101.83 223.04 103.13 219.01 C 104.36 212.71 103.71 206.05 101.19 200.14 C 95.51 185.39 85.45 171.41 86.32 154.93 C 87.40 139.40 100.38 126.72 115.01 122.94 C 118.11 122.49 121.23 122.15 124.28 121.40 C 124.56 121.73 125.13 122.41 125.41 122.75 C 122.99 131.26 122.31 140.55 125.20 149.05 C 126.81 154.31 130.13 159.27 135.13 161.82 C 139.52 164.17 145.17 165.95 149.87 163.43 C 154.49 161.13 156.70 155.91 157.55 151.09 C 159.03 137.00 151.37 123.99 142.90 113.37 C 139.13 108.80 138.08 102.86 137.60 97.13 C 137.84 82.54 143.72 68.85 150.26 56.07 M 143.27 207.47 C 145.63 212.04 146.89 218.12 143.45 222.50 C 138.28 229.60 129.75 233.81 125.71 241.84 C 120.83 251.85 120.57 265.14 128.05 273.98 C 133.87 280.33 142.62 283.05 151.01 283.63 C 158.42 283.85 166.17 284.13 173.10 281.02 C 179.81 278.34 185.28 272.76 187.72 265.94 C 192.20 254.16 188.84 240.82 182.11 230.59 C 175.59 220.25 164.46 213.82 153.15 209.92 C 149.88 209.03 146.72 207.47 143.27 207.47 Z" />
</g>
<g id="#ffffffff">
<path fill="#ffffff" opacity="1.00" d=" M 774.46 67.52 C 776.14 67.12 777.80 66.63 779.49 66.25 L 779.34 65.56 C 784.11 65.28 788.90 65.28 793.67 65.62 L 793.52 66.73 C 793.88 66.66 794.61 66.51 794.97 66.44 C 796.20 67.04 797.51 67.58 798.67 68.37 C 800.65 69.63 802.36 71.26 804.09 72.86 C 804.81 73.82 805.56 74.77 806.33 75.72 C 816.62 90.89 818.83 109.76 820.14 127.60 C 821.25 148.44 820.98 169.56 816.87 190.09 C 814.79 200.63 811.08 211.05 804.22 219.46 L 803.72 219.41 C 802.83 220.36 801.94 221.30 801.09 222.27 C 800.16 222.75 799.24 223.23 798.32 223.71 L 798.44 224.78 C 797.98 224.65 797.07 224.38 796.62 224.25 L 796.39 225.37 C 790.74 227.36 784.60 226.99 778.76 226.23 C 778.20 226.01 777.07 225.55 776.51 225.33 L 776.38 224.26 C 775.92 224.41 775.01 224.72 774.56 224.88 L 774.65 223.74 C 773.58 223.29 772.53 222.84 771.49 222.39 L 771.67 221.70 C 771.16 221.37 770.15 220.72 769.65 220.39 C 769.40 220.13 768.90 219.60 768.65 219.34 C 759.47 209.09 756.32 195.04 754.16 181.83 C 751.03 158.36 751.03 134.45 754.08 110.98 C 756.27 97.75 759.33 83.73 768.27 73.28 C 768.89 72.57 769.56 71.90 770.28 71.25 C 770.51 71.01 770.99 70.52 771.22 70.27 C 772.27 69.45 773.37 68.71 774.65 68.26 L 774.46 67.52 M 782.51 91.26 C 781.57 91.72 780.65 92.19 779.74 92.67 C 775.23 98.13 773.94 105.31 772.70 112.07 C 770.52 127.59 770.35 143.31 770.84 158.94 C 771.18 168.35 771.93 177.80 774.03 187.00 C 775.12 191.22 776.37 195.66 779.52 198.86 L 779.50 199.70 C 779.91 199.69 780.72 199.69 781.13 199.69 C 781.28 200.08 781.58 200.85 781.73 201.24 C 784.94 201.40 790.12 203.10 791.91 199.53 C 792.22 199.53 792.82 199.52 793.12 199.52 C 795.05 196.19 797.02 192.83 797.88 189.03 C 801.36 175.65 801.74 161.72 801.94 147.97 C 801.96 133.89 801.45 119.71 798.61 105.87 C 797.27 100.12 795.07 94.14 790.06 90.63 C 787.48 90.32 784.88 90.37 782.30 90.47 L 782.51 91.26 Z" />
<path fill="#ffffff" opacity="1.00" d=" M 852.50 67.63 C 854.33 67.20 856.12 66.56 857.77 65.62 C 861.93 65.22 866.11 65.32 870.29 65.62 C 871.86 66.68 873.65 67.37 875.55 67.65 L 875.42 68.36 C 876.92 68.73 877.90 69.94 879.09 70.85 C 881.34 73.01 883.10 75.61 884.78 78.24 C 892.12 91.44 893.82 106.75 895.37 121.52 C 894.18 121.62 893.01 121.72 891.84 121.84 C 890.44 122.26 889.03 122.55 887.61 122.75 L 887.58 123.50 C 885.84 123.49 884.12 123.52 882.41 123.51 L 882.70 124.40 C 881.27 124.55 879.90 124.72 878.51 124.88 C 877.84 116.21 877.01 107.40 874.00 99.18 C 872.58 96.12 870.88 92.50 867.46 91.33 L 867.70 90.51 C 865.58 90.45 863.46 90.44 861.36 90.45 L 861.52 91.28 C 860.41 91.60 859.34 92.00 858.31 92.48 L 858.48 93.18 C 857.00 93.78 856.33 95.25 855.57 96.52 C 852.92 101.24 851.65 106.55 850.58 111.81 C 848.42 124.08 848.26 136.58 848.17 149.00 C 848.39 162.37 848.44 176.01 852.36 188.92 C 853.45 192.82 855.57 196.28 857.86 199.58 C 858.24 199.56 859.00 199.52 859.37 199.50 L 859.31 200.51 C 862.07 202.23 865.50 201.47 868.57 201.38 L 868.35 200.30 L 869.51 200.69 L 869.51 199.55 L 870.45 199.65 C 876.91 190.95 877.32 179.55 878.45 169.18 C 881.84 169.51 885.19 170.13 888.57 170.61 L 888.52 171.42 C 890.57 171.46 892.63 171.54 894.70 171.58 C 895.35 176.13 894.06 180.62 893.66 185.13 C 891.48 197.46 888.76 210.57 880.15 220.17 C 878.39 221.57 876.74 223.09 875.16 224.67 C 874.77 224.57 874.00 224.36 873.61 224.26 L 873.35 225.54 C 873.01 225.53 872.32 225.53 871.98 225.52 C 869.61 227.04 866.59 226.49 863.92 226.80 C 860.27 226.62 855.86 227.19 853.07 224.34 C 852.69 224.45 851.93 224.68 851.55 224.79 L 851.69 223.66 C 850.65 223.18 849.61 222.73 848.56 222.31 L 848.65 221.71 C 847.68 220.87 846.74 220.02 845.81 219.17 C 839.14 211.51 836.22 201.59 833.75 191.96 C 829.08 171.00 828.70 149.37 829.80 128.01 C 831.18 111.91 833.36 95.42 840.78 80.85 C 841.29 80.02 841.80 79.19 842.31 78.36 C 843.43 76.52 844.84 74.89 846.20 73.23 C 846.83 72.50 847.51 71.82 848.25 71.18 C 848.59 71.01 849.28 70.68 849.62 70.51 L 849.43 69.59 L 850.22 69.48 C 850.81 69.20 851.99 68.64 852.58 68.36 L 852.50 67.63 Z" />
<path fill="#ffffff" opacity="1.00" d=" M 385.82 67.44 C 391.05 67.42 396.28 67.46 401.52 67.41 C 401.38 119.78 401.48 172.14 401.47 224.51 C 395.90 224.52 390.33 224.51 384.76 224.52 C 374.28 184.16 363.64 143.84 353.25 103.46 C 353.28 143.81 353.20 184.16 353.25 224.51 C 348.04 224.51 342.83 224.52 337.62 224.51 C 337.61 172.15 337.69 119.78 337.58 67.42 C 344.35 67.46 351.12 67.49 357.89 67.46 C 365.89 98.39 373.77 129.34 381.68 160.29 C 382.96 165.74 384.65 171.09 385.59 176.62 C 386.02 172.08 385.74 167.51 385.84 162.96 C 385.83 131.12 385.87 99.28 385.82 67.44 Z" />
<path fill="#ffffff" opacity="1.00" d=" M 434.85 67.59 C 441.11 67.48 447.37 67.72 453.63 67.44 C 456.97 84.73 459.27 102.21 462.22 119.57 C 467.82 154.54 473.36 189.53 479.02 224.49 C 473.04 224.55 467.06 224.48 461.08 224.53 C 459.16 211.84 457.21 199.14 455.35 186.44 C 447.07 186.43 438.80 186.44 430.53 186.43 C 428.69 199.14 426.68 211.83 424.83 224.54 C 419.14 224.44 413.44 224.64 407.76 224.42 C 416.93 172.17 425.80 119.86 434.85 67.59 M 442.84 96.84 C 439.89 118.46 436.84 140.07 433.87 161.68 C 439.92 161.68 445.97 161.71 452.03 161.66 C 448.91 140.06 446.00 118.43 442.84 96.84 Z" />
<path fill="#ffffff" opacity="1.00" d=" M 922.77 67.46 C 929.17 67.46 935.56 67.48 941.96 67.44 C 950.45 119.79 958.90 172.14 967.09 224.52 C 961.10 224.52 955.12 224.48 949.14 224.55 C 947.18 211.85 945.26 199.15 943.39 186.44 C 935.11 186.43 926.84 186.44 918.56 186.43 C 916.73 199.14 914.87 211.85 912.90 224.54 C 907.24 224.50 901.58 224.49 895.93 224.55 C 904.62 172.15 913.95 119.84 922.77 67.46 M 930.89 99.76 C 927.57 120.31 925.11 141.01 921.95 161.60 C 927.97 161.59 933.99 161.62 940.01 161.58 C 938.05 149.37 936.48 137.09 934.74 124.85 C 933.28 116.52 932.83 107.99 930.89 99.76 Z" />
<path fill="#ffffff" opacity="1.00" d=" M 1036.54 67.42 C 1056.28 67.42 1076.03 67.48 1095.77 67.39 C 1095.75 76.12 1095.72 84.86 1095.80 93.60 C 1088.88 93.64 1081.98 93.61 1075.07 93.62 C 1075.11 137.24 1075.03 180.85 1075.11 224.47 C 1069.09 224.58 1063.07 224.45 1057.05 224.55 C 1056.93 180.91 1057.03 137.27 1057.00 93.62 C 1050.19 93.61 1043.38 93.64 1036.57 93.61 C 1036.59 84.88 1036.65 76.15 1036.54 67.42 Z" />
<path fill="#ffffff" opacity="1.00" d=" M 1099.15 67.38 C 1117.71 67.47 1136.26 67.46 1154.82 67.38 C 1154.74 75.72 1154.94 84.06 1154.71 92.39 C 1142.23 92.23 1129.75 92.39 1117.28 92.31 C 1117.23 105.40 1117.18 118.50 1117.30 131.59 C 1127.12 131.51 1136.93 131.62 1146.75 131.53 C 1146.79 139.87 1146.69 148.21 1146.80 156.54 C 1136.94 156.54 1127.08 156.54 1117.22 156.54 C 1117.33 170.86 1117.08 185.19 1117.35 199.51 C 1130.05 199.41 1142.75 199.48 1155.45 199.47 C 1155.47 207.82 1155.42 216.16 1155.47 224.51 C 1136.68 224.51 1117.89 224.53 1099.11 224.50 C 1099.21 172.13 1099.11 119.75 1099.15 67.38 Z" />
<path fill="#ffffff" opacity="1.00" d=" M 508.79 183.11 C 514.06 144.59 519.14 106.03 524.56 67.53 C 529.57 67.55 534.58 67.68 539.59 67.44 C 539.72 68.03 539.97 69.20 540.10 69.79 C 531.93 121.40 523.87 173.04 515.81 224.67 C 509.58 224.58 503.35 224.57 497.12 224.52 C 489.16 172.42 481.11 120.34 473.15 68.24 C 479.30 68.22 485.46 68.26 491.61 68.22 C 496.87 107.19 502.12 146.16 507.37 185.13 C 507.60 186.62 507.36 188.14 507.45 189.65 C 509.52 188.47 508.18 185.13 508.79 183.11 Z" />
<path fill="#ffffff" opacity="1.00" d=" M 533.43 224.49 C 542.54 172.18 551.35 119.82 560.58 67.53 C 566.86 67.59 573.14 67.59 579.43 67.53 C 588.02 119.82 596.15 172.18 604.65 224.49 C 598.65 224.54 592.66 224.50 586.67 224.52 C 584.78 211.81 582.86 199.11 580.92 186.42 C 572.66 186.45 564.40 186.44 556.14 186.43 C 554.33 199.14 552.29 211.81 550.46 224.52 C 544.78 224.49 539.10 224.55 533.43 224.49 M 568.48 96.71 C 565.52 118.37 562.49 140.02 559.48 161.67 C 565.46 161.80 571.45 161.47 577.42 161.86 C 571.48 162.72 565.46 162.02 559.49 162.34 C 565.47 162.68 571.48 162.52 577.47 162.32 C 577.42 159.47 576.95 156.66 576.54 153.86 C 573.84 134.81 571.19 115.76 568.48 96.71 Z" />
<path fill="#ffffff" opacity="1.00" d=" M 610.68 67.42 C 621.39 67.50 632.10 67.52 642.82 67.55 L 642.19 68.41 C 644.17 68.42 646.16 68.50 648.14 68.72 C 649.21 69.12 650.30 69.49 651.41 69.82 L 651.43 70.36 C 653.66 69.91 654.54 72.17 656.50 72.51 L 656.60 73.33 C 659.13 73.80 660.16 76.52 661.80 78.21 C 665.63 83.43 667.69 89.68 668.91 95.98 C 670.86 106.22 670.97 116.80 669.61 127.12 C 668.68 134.80 666.17 142.38 661.81 148.80 C 660.30 150.73 658.72 152.66 656.66 154.04 C 659.29 167.32 663.14 180.36 666.27 193.53 C 668.85 203.86 671.41 214.20 674.06 224.52 C 667.72 224.53 661.40 224.48 655.07 224.55 C 650.21 203.48 645.58 182.37 640.83 161.28 C 636.82 161.36 632.81 161.33 628.80 161.36 C 628.84 182.41 628.76 203.46 628.84 224.51 C 622.79 224.52 616.75 224.52 610.71 224.51 C 610.71 172.15 610.77 119.79 610.68 67.42 M 628.79 94.96 C 628.82 108.86 628.81 122.77 628.80 136.67 C 633.76 136.66 638.73 136.79 643.69 136.52 L 643.45 135.63 C 644.77 135.50 646.19 135.16 646.88 133.89 C 647.66 132.98 648.45 132.09 649.27 131.20 C 652.76 123.17 653.55 114.14 652.21 105.53 C 651.52 101.81 650.55 97.82 647.68 95.13 L 647.54 94.42 L 646.48 94.45 L 646.38 93.34 C 645.90 93.40 644.95 93.53 644.48 93.59 L 644.73 92.54 C 639.67 91.24 634.46 91.91 629.32 91.70 C 628.99 92.77 628.81 93.85 628.79 94.96 Z" />
<path fill="#ffffff" opacity="1.00" d=" M 683.30 224.51 C 683.33 172.14 683.34 119.76 683.29 67.39 C 694.12 67.56 704.95 67.49 715.79 67.57 L 715.18 68.44 C 717.47 68.59 720.07 68.02 722.08 69.49 C 722.44 69.41 723.14 69.25 723.49 69.17 L 723.35 70.38 C 724.18 70.42 725.83 70.48 726.65 70.52 L 726.34 71.34 C 727.40 71.81 728.47 72.27 729.55 72.72 L 729.45 73.48 C 731.87 73.67 732.59 76.41 734.19 77.84 C 741.55 87.89 742.88 100.91 743.17 113.00 C 743.16 126.35 741.39 140.86 732.41 151.40 C 731.53 152.32 730.63 153.27 729.44 153.78 C 729.44 155.20 729.62 156.59 729.98 157.96 C 735.58 180.13 741.11 202.31 746.67 224.48 C 740.32 224.56 733.97 224.48 727.62 224.53 C 723.03 203.45 718.11 182.44 713.56 161.35 L 712.72 161.62 L 712.33 160.65 C 711.57 160.64 710.04 160.62 709.27 160.60 L 709.66 161.55 C 706.91 161.26 704.15 161.31 701.40 161.35 C 701.44 182.40 701.38 203.46 701.43 224.51 C 695.38 224.52 689.34 224.51 683.30 224.51 M 701.47 91.79 C 701.32 106.75 701.48 121.70 701.39 136.66 C 706.47 136.65 711.56 136.83 716.64 136.45 L 716.41 135.52 C 717.50 135.46 718.46 135.06 719.29 134.30 C 719.53 134.03 720.02 133.47 720.27 133.20 C 724.10 128.35 724.97 121.94 725.41 115.98 C 725.59 109.10 725.26 101.60 721.15 95.79 C 720.00 94.85 719.06 93.48 717.46 93.38 L 717.71 92.63 C 712.39 91.23 706.89 91.83 701.47 91.79 Z" />
<path fill="#ffffff" opacity="1.00" d=" M 973.12 67.38 C 984.02 67.59 994.93 67.44 1005.84 67.60 L 1005.17 68.46 C 1008.04 68.12 1010.79 68.92 1013.56 69.54 L 1013.25 70.36 C 1014.11 70.42 1015.81 70.53 1016.67 70.59 L 1016.25 71.44 C 1017.28 71.86 1018.33 72.28 1019.40 72.70 L 1019.39 73.35 C 1020.47 73.70 1021.31 74.36 1021.90 75.33 L 1022.22 75.55 C 1030.83 85.49 1032.64 99.26 1032.96 111.94 C 1033.14 125.68 1031.35 140.59 1022.21 151.51 L 1021.83 151.52 C 1021.23 152.54 1020.39 153.30 1019.32 153.80 C 1019.26 155.19 1019.41 156.56 1019.76 157.90 C 1025.39 180.08 1030.96 202.28 1036.47 224.49 C 1030.12 224.55 1023.78 224.48 1017.45 224.53 C 1012.56 202.90 1007.98 181.19 1002.76 159.64 L 1002.74 161.37 C 998.89 161.29 995.04 161.35 991.19 161.35 C 991.22 182.40 991.19 203.45 991.21 224.51 C 985.17 224.52 979.13 224.50 973.10 224.52 C 973.14 172.14 973.09 119.76 973.12 67.38 M 991.15 136.64 C 996.27 136.67 1001.41 136.83 1006.54 136.45 L 1006.39 135.53 C 1006.77 135.44 1007.53 135.27 1007.91 135.19 C 1013.45 130.92 1014.55 123.46 1015.18 116.96 C 1015.52 108.89 1015.19 99.62 1009.01 93.62 C 1008.63 93.65 1007.85 93.70 1007.47 93.73 L 1007.69 92.67 C 1002.33 91.22 996.80 91.84 991.34 91.78 C 990.99 106.72 991.37 121.68 991.15 136.64 Z" />
<path fill="#ffffff" opacity="1.00" d=" M 1162.42 67.40 C 1173.21 67.53 1184.01 67.51 1194.82 67.56 L 1194.18 68.42 C 1197.00 68.25 1199.80 68.68 1202.51 69.49 L 1202.52 70.43 C 1203.29 70.43 1204.84 70.44 1205.61 70.44 L 1205.49 71.50 L 1206.59 71.38 L 1206.72 72.41 C 1207.16 72.38 1208.04 72.33 1208.48 72.31 L 1208.51 73.37 C 1211.01 73.93 1212.08 76.57 1213.69 78.32 C 1220.54 88.08 1221.95 100.46 1222.28 112.06 C 1222.38 123.99 1221.13 136.53 1214.83 146.95 C 1213.07 149.54 1211.28 152.32 1208.50 153.92 C 1209.72 162.25 1212.44 170.29 1214.29 178.49 C 1218.14 193.82 1221.94 209.16 1225.83 224.48 C 1219.47 224.56 1213.11 224.49 1206.76 224.52 C 1202.12 203.43 1197.30 182.39 1192.65 161.31 C 1188.61 161.33 1184.58 161.34 1180.56 161.35 C 1180.59 182.40 1180.53 203.46 1180.59 224.51 C 1174.54 224.52 1168.50 224.52 1162.46 224.51 C 1162.46 172.14 1162.54 119.77 1162.42 67.40 M 1180.60 91.80 C 1180.50 106.75 1180.62 121.71 1180.55 136.66 C 1185.58 136.66 1190.63 136.82 1195.67 136.48 L 1195.42 135.59 C 1196.48 135.44 1197.46 135.05 1198.37 134.42 C 1198.60 134.13 1199.06 133.54 1199.29 133.25 C 1202.93 129.06 1203.75 123.28 1204.41 117.97 C 1204.85 110.48 1204.74 102.21 1200.30 95.81 C 1199.44 95.12 1198.70 94.34 1198.07 93.46 C 1197.67 93.51 1196.88 93.60 1196.48 93.65 L 1196.71 92.59 C 1191.42 91.24 1185.98 91.83 1180.60 91.80 Z" />
<path fill="#ffffff" opacity="1.00" d=" M 760.81 246.85 C 763.23 244.42 766.89 245.08 770.00 244.98 C 770.00 245.72 770.00 247.18 770.00 247.91 C 767.88 247.86 765.76 247.84 763.66 247.80 C 762.75 249.74 762.80 251.89 762.81 253.99 C 764.76 254.00 766.73 254.00 768.70 254.01 C 768.70 254.75 768.70 256.24 768.70 256.99 C 766.74 256.99 764.79 257.00 762.85 257.00 C 762.85 264.33 762.85 271.67 762.86 279.00 C 761.42 278.99 759.99 279.00 758.57 279.00 C 758.58 271.68 758.54 264.36 758.59 257.04 C 757.24 257.01 755.90 256.99 754.57 256.98 C 754.57 256.24 754.57 254.75 754.57 254.00 C 756.01 254.00 757.46 254.00 758.92 254.00 C 759.10 251.57 758.77 248.63 760.81 246.85 Z" />
<path fill="#ffffff" opacity="1.00" d=" M 338.31 248.99 C 339.59 246.00 343.22 245.89 346.00 245.93 C 346.00 246.65 346.00 248.09 346.00 248.81 C 344.62 249.17 343.26 249.57 341.90 249.97 C 341.28 254.60 342.34 259.40 341.03 263.95 C 340.78 265.15 339.51 265.69 338.75 266.53 C 339.82 267.40 341.01 268.34 341.24 269.82 C 342.15 274.16 341.37 278.63 341.90 283.02 C 343.26 283.42 344.62 283.83 346.00 284.19 C 346.00 284.91 346.00 286.36 346.00 287.08 C 343.23 287.05 339.52 287.08 338.41 283.92 C 337.19 279.10 339.02 273.85 337.12 269.12 C 336.59 268.82 335.53 268.24 334.99 267.95 C 334.99 267.23 334.99 265.78 335.00 265.06 C 335.53 264.76 336.59 264.16 337.12 263.87 C 339.08 259.14 337.23 253.88 338.31 248.99 Z" />
<path fill="#ffffff" opacity="1.00" d=" M 363.30 246.01 C 369.36 246.46 375.86 244.82 381.58 247.37 C 393.16 253.51 392.34 273.81 379.96 278.57 C 374.48 279.48 368.84 278.79 363.30 278.99 C 363.31 268.00 363.32 257.00 363.30 246.01 M 367.85 250.01 C 367.85 258.34 367.85 266.66 367.85 274.99 C 372.59 274.89 378.33 275.87 381.93 272.01 C 386.62 266.71 386.41 257.56 381.44 252.50 C 377.75 249.14 372.40 250.13 367.85 250.01 Z" />
<path fill="#ffffff" opacity="1.00" d=" M 529.00 246.00 C 530.33 246.00 531.66 246.00 533.00 246.00 C 533.00 257.00 533.00 268.00 533.00 279.00 C 531.66 279.00 530.33 279.00 529.00 279.00 C 529.00 268.00 529.00 257.00 529.00 246.00 Z" />
<path fill="#ffffff" opacity="1.00" d=" M 540.30 246.00 C 541.76 246.00 543.22 246.00 544.70 246.00 C 544.69 257.00 544.69 268.00 544.70 279.00 C 543.22 278.99 541.76 278.99 540.31 279.00 C 540.31 268.00 540.31 257.00 540.30 246.00 Z" />
<path fill="#ffffff" opacity="1.00" d=" M 594.00 246.00 C 595.33 246.00 596.66 246.00 598.00 246.00 C 598.00 257.00 598.00 268.00 598.00 279.00 C 596.70 279.00 595.41 278.99 594.13 278.99 C 594.14 278.25 594.17 276.77 594.18 276.03 C 592.39 278.13 590.08 280.28 587.09 280.02 C 582.18 280.67 578.39 276.28 577.24 271.95 C 575.82 266.38 576.41 259.77 580.49 255.43 C 584.18 251.62 590.93 252.33 594.04 256.53 C 593.97 253.02 594.00 249.51 594.00 246.00 M 586.13 256.25 C 581.79 257.68 580.78 263.00 580.96 267.00 C 580.95 270.85 582.10 275.81 586.37 276.94 C 590.63 277.38 594.13 273.12 594.01 269.06 C 593.83 265.79 594.67 262.19 592.93 259.22 C 591.52 257.08 588.70 255.39 586.13 256.25 Z" />
<path fill="#ffffff" opacity="1.00" d=" M 719.00 246.00 C 720.32 246.00 721.66 246.00 723.00 246.00 C 722.98 249.84 723.04 253.69 722.95 257.53 C 724.93 253.41 730.18 251.69 734.22 253.81 C 740.01 256.73 741.00 264.33 739.97 270.08 C 739.30 274.94 735.51 280.48 730.04 280.02 C 726.59 280.48 724.03 277.88 722.19 275.36 C 721.71 277.10 721.49 279.64 719.01 279.16 C 718.99 268.10 719.01 257.05 719.00 246.00 M 727.33 256.61 C 722.20 259.26 722.75 265.85 723.13 270.71 C 723.55 274.97 728.78 278.96 732.60 275.85 C 736.56 272.18 736.54 265.96 735.12 261.11 C 734.44 257.79 730.67 254.71 727.33 256.61 Z" />
<path fill="#ffffff" opacity="1.00" d=" M 842.00 246.00 C 843.32 246.00 844.66 246.00 846.00 246.00 C 846.00 257.00 846.00 268.00 846.00 279.00 C 844.66 279.00 843.32 279.00 842.00 279.00 C 842.00 268.00 842.00 257.00 842.00 246.00 Z" />
<path fill="#ffffff" opacity="1.00" d=" M 966.00 245.92 C 968.74 245.94 972.45 245.96 973.67 248.99 C 974.70 253.89 973.04 259.10 974.86 263.87 C 975.40 264.16 976.47 264.75 977.01 265.05 C 977.01 265.77 977.01 267.22 977.01 267.95 C 976.47 268.24 975.40 268.84 974.86 269.13 C 973.01 273.88 974.76 279.10 973.63 283.96 C 972.47 287.05 968.75 287.10 966.00 287.07 C 966.00 286.35 966.00 284.92 966.00 284.20 C 967.22 283.74 968.69 283.67 969.75 282.80 C 971.79 277.75 967.86 270.16 973.25 266.48 C 972.18 265.58 970.98 264.66 970.76 263.19 C 969.84 258.85 970.63 254.37 970.10 249.98 C 968.73 249.57 967.37 249.17 966.00 248.81 C 966.00 248.09 966.00 246.64 966.00 245.92 Z" />
<path fill="#ffffff" opacity="1.00" d=" M 400.51 253.71 C 404.32 252.33 409.32 252.61 412.17 255.82 C 415.00 258.76 415.73 263.05 415.78 266.98 C 409.77 267.03 403.77 266.98 397.77 267.01 C 397.64 270.48 398.42 274.80 402.12 276.18 C 405.73 278.34 410.33 275.82 411.57 272.07 C 412.78 272.17 414.00 272.28 415.23 272.40 C 413.74 280.96 400.67 282.74 396.01 275.87 C 391.23 269.09 392.46 257.46 400.51 253.71 M 397.68 263.98 C 402.26 264.02 406.85 264.00 411.44 263.99 C 411.67 259.61 407.60 254.52 402.94 256.42 C 399.57 257.35 398.39 260.94 397.68 263.98 Z" />
<path fill="#ffffff" opacity="1.00" d=" M 423.04 253.95 C 428.31 251.64 436.92 252.87 438.17 259.53 C 436.96 259.67 435.74 259.81 434.53 259.94 C 432.74 255.83 427.68 255.15 424.03 257.11 C 423.05 258.83 422.31 261.23 424.25 262.63 C 427.64 264.69 432.04 263.57 435.45 265.69 C 440.45 267.86 440.31 275.99 435.63 278.47 C 429.67 281.81 419.35 280.37 417.88 272.56 C 419.10 272.36 420.33 272.17 421.56 271.99 C 423.34 277.51 431.97 278.94 435.06 273.84 C 435.04 273.16 435.01 271.82 434.99 271.15 C 434.27 270.42 433.55 269.71 432.84 268.99 C 429.03 267.84 424.52 268.51 421.30 265.84 C 417.36 262.77 418.49 255.87 423.04 253.95 Z" />
<path fill="#ffffff" opacity="1.00" d=" M 442.88 259.55 C 443.66 255.39 447.92 252.85 451.96 253.03 C 455.88 252.67 461.18 252.97 462.67 257.40 C 464.53 264.45 463.25 271.82 463.83 279.00 C 462.54 279.00 461.25 279.00 459.97 279.01 C 459.77 277.56 459.66 276.11 459.64 274.66 C 457.32 281.34 446.38 282.15 443.20 275.85 C 441.10 272.06 442.62 266.77 446.48 264.76 C 450.35 262.36 455.06 263.13 459.38 262.99 C 459.14 261.21 459.71 259.06 458.34 257.64 C 454.73 254.84 448.50 255.57 446.52 259.98 C 445.30 259.84 444.09 259.69 442.88 259.55 M 446.88 270.82 C 445.64 274.74 449.98 278.17 453.57 276.68 C 458.25 275.54 459.84 270.31 459.66 266.03 C 455.23 265.72 448.45 265.56 446.88 270.82 Z" />
<path fill="#ffffff" opacity="1.00" d=" M 474.56 259.32 C 475.91 255.58 479.06 252.15 483.42 252.89 C 483.42 254.19 483.43 255.49 483.44 256.80 C 479.19 256.80 475.66 260.15 475.13 264.31 C 474.80 269.19 475.10 274.10 475.00 279.00 C 473.66 279.00 472.33 279.00 471.00 279.00 C 471.00 270.67 471.00 262.33 471.00 254.00 C 471.93 254.00 473.79 254.00 474.72 254.00 C 474.69 255.77 474.65 257.54 474.56 259.32 Z" />
<path fill="#ffffff" opacity="1.00" d=" M 491.06 259.11 C 492.56 255.54 495.53 252.17 499.83 252.90 C 499.85 254.19 499.87 255.47 499.91 256.77 C 495.86 256.93 492.02 259.94 491.76 264.13 C 491.57 269.08 491.75 274.04 491.70 279.00 C 490.22 278.99 488.76 278.99 487.30 279.00 C 487.31 270.67 487.32 262.34 487.30 254.01 C 488.52 254.00 489.74 254.00 490.97 253.99 C 490.98 255.70 490.99 257.41 491.06 259.11 Z" />
<path fill="#ffffff" opacity="1.00" d=" M 508.46 253.52 C 512.79 252.12 518.20 253.10 520.78 257.15 C 524.94 263.45 524.53 273.42 518.19 278.18 C 515.60 280.28 512.04 280.28 508.92 279.74 C 505.35 278.76 502.98 275.45 501.84 272.10 C 499.82 265.46 501.33 256.42 508.46 253.52 M 511.20 256.10 C 507.75 257.00 505.58 260.57 505.70 264.03 C 505.65 267.94 505.08 272.75 508.55 275.49 C 511.45 278.46 516.57 276.54 517.88 272.93 C 519.51 268.90 519.52 264.18 517.91 260.15 C 516.90 257.54 513.99 255.63 511.20 256.10 Z" />
<path fill="#ffffff" opacity="1.00" d=" M 550.31 259.51 C 551.18 255.57 555.02 253.07 558.92 253.06 C 562.03 253.01 565.70 252.48 568.24 254.72 C 570.41 256.48 570.92 259.43 570.90 262.08 C 571.28 267.72 570.52 273.41 571.42 279.02 C 570.03 279.00 568.65 278.99 567.27 278.98 C 567.25 277.94 567.22 275.88 567.20 274.84 C 564.39 281.46 553.68 282.05 550.44 275.54 C 549.65 272.43 549.45 268.44 552.21 266.20 C 556.05 262.16 562.06 263.08 567.09 263.00 C 566.99 261.10 567.08 258.95 565.63 257.50 C 562.02 254.80 556.05 255.71 554.00 259.93 C 552.76 259.85 551.53 259.71 550.31 259.51 M 554.46 271.08 C 553.26 275.07 557.95 278.30 561.45 276.57 C 565.78 275.14 567.43 270.20 567.24 266.02 C 562.81 265.72 555.59 265.53 554.46 271.08 Z" />
<path fill="#ffffff" opacity="1.00" d=" M 610.45 253.65 C 614.50 252.21 619.69 252.81 622.47 256.39 C 626.85 262.06 626.93 270.85 622.37 276.44 C 618.53 281.11 610.24 281.51 606.49 276.55 C 601.23 269.78 602.08 257.56 610.45 253.65 M 613.14 256.22 C 608.59 257.52 607.45 262.90 607.81 267.02 C 607.46 271.12 609.35 276.29 613.93 276.98 C 618.19 277.25 621.08 272.88 621.14 268.99 C 621.16 266.03 621.53 262.88 620.17 260.14 C 619.07 257.51 616.01 255.37 613.14 256.22 Z" />
<path fill="#ffffff" opacity="1.00" d=" M 637.69 254.76 C 639.17 252.94 641.55 252.96 643.69 252.94 C 643.69 254.22 643.70 255.51 643.72 256.81 C 639.72 256.86 635.92 259.81 635.57 263.91 C 635.23 268.93 635.52 273.97 635.43 279.00 C 633.99 279.00 632.56 278.99 631.15 279.00 C 631.15 270.67 631.15 262.33 631.14 254.00 C 632.10 254.00 634.00 254.00 634.96 254.00 C 634.87 255.89 634.48 257.75 634.42 259.65 C 636.15 258.66 635.91 255.90 637.69 254.76 Z" />
<path fill="#ffffff" opacity="1.00" d=" M 698.48 253.59 C 702.11 252.49 706.64 252.60 709.51 255.40 C 712.72 258.30 713.35 262.88 713.52 266.98 C 707.55 267.02 701.59 266.98 695.62 267.01 C 695.27 270.74 696.43 275.17 700.41 276.43 C 704.07 278.23 708.08 275.44 709.46 272.01 C 710.70 272.17 711.94 272.33 713.19 272.51 C 711.13 280.81 698.70 282.79 693.83 275.97 C 688.98 269.15 690.20 257.20 698.48 253.59 M 695.56 263.98 C 700.13 264.02 704.72 264.00 709.30 263.99 C 709.09 260.33 706.96 256.36 702.96 255.98 C 698.68 255.92 695.81 260.03 695.56 263.98 Z" />
<path fill="#ffffff" opacity="1.00" d=" M 777.05 259.23 C 778.48 255.60 781.50 252.17 785.83 252.90 C 785.84 254.19 785.87 255.47 785.91 256.76 C 781.89 256.93 778.05 259.91 777.77 264.08 C 777.56 269.04 777.75 274.02 777.70 279.00 C 776.22 278.99 774.75 278.99 773.30 278.99 C 773.31 270.67 773.31 262.34 773.30 254.01 C 774.51 254.00 775.74 254.00 776.98 253.99 C 776.98 255.74 776.99 257.48 777.05 259.23 Z" />
<path fill="#ffffff" opacity="1.00" d=" M 788.18 262.81 C 788.89 258.59 791.89 254.59 796.06 253.30 C 799.39 252.67 803.28 252.71 805.93 255.13 C 809.40 257.99 810.22 262.75 810.05 267.00 C 804.15 267.01 798.25 266.98 792.35 267.02 C 792.19 270.60 793.01 274.93 796.84 276.29 C 800.62 278.44 804.75 275.43 806.35 271.97 C 807.58 272.17 808.82 272.39 810.07 272.62 C 807.77 280.33 796.59 282.72 791.30 276.78 C 787.69 273.10 787.63 267.61 788.18 262.81 M 792.33 263.97 C 796.91 264.02 801.50 263.98 806.09 264.01 C 805.46 261.07 804.76 257.52 801.48 256.48 C 796.76 254.47 792.43 259.51 792.33 263.97 Z" />
<path fill="#ffffff" opacity="1.00" d=" M 821.58 253.44 C 825.21 252.53 829.61 252.70 832.39 255.54 C 835.50 258.45 836.19 262.93 836.05 267.00 C 830.15 267.01 824.24 266.97 818.34 267.02 C 818.19 270.60 819.02 274.94 822.84 276.29 C 826.62 278.44 830.74 275.43 832.34 271.98 C 833.57 272.17 834.80 272.38 836.05 272.59 C 833.69 280.92 821.06 282.85 816.36 275.62 C 811.84 268.69 813.13 256.78 821.58 253.44 M 822.86 256.67 C 819.88 257.85 818.79 261.07 818.33 263.97 C 822.91 264.03 827.50 263.98 832.09 264.01 C 831.66 262.42 831.35 260.78 830.76 259.25 C 829.22 256.70 825.62 254.99 822.86 256.67 Z" />
<path fill="#ffffff" opacity="1.00" d=" M 851.87 259.69 C 852.07 255.20 856.98 252.85 860.98 253.01 C 864.86 252.64 869.94 253.11 871.46 257.41 C 873.07 264.49 872.01 271.82 872.66 279.01 C 871.63 279.00 869.56 279.00 868.53 278.99 C 868.44 277.60 868.40 276.21 868.41 274.82 C 865.82 281.27 855.38 282.10 851.99 275.99 C 850.32 272.69 850.85 268.13 853.86 265.75 C 857.78 262.25 863.39 263.09 868.22 263.00 C 868.07 261.22 868.38 259.23 867.17 257.75 C 863.75 254.83 857.22 255.44 855.43 259.93 C 854.23 259.85 853.04 259.77 851.87 259.69 M 857.16 268.13 C 855.28 269.55 855.76 272.02 855.68 274.06 C 856.06 274.57 856.81 275.58 857.19 276.09 C 859.10 276.78 861.27 277.54 863.18 276.37 C 867.28 274.82 868.59 270.01 868.39 266.02 C 864.59 265.78 860.32 265.66 857.16 268.13 Z" />
<path fill="#ffffff" opacity="1.00" d=" M 883.84 257.97 C 885.63 255.79 887.61 252.89 890.81 252.99 C 895.10 252.33 899.24 255.79 899.54 260.08 C 899.90 266.37 899.58 272.69 899.70 278.99 C 898.45 278.99 897.22 279.00 896.00 279.00 C 895.94 273.30 896.10 267.59 895.94 261.89 C 895.84 259.06 894.00 256.21 891.00 255.97 C 886.94 256.07 884.37 259.97 884.06 263.69 C 883.89 268.79 884.05 273.90 884.00 279.00 C 882.66 279.00 881.32 279.00 880.00 279.00 C 880.00 270.67 880.00 262.33 880.00 254.00 C 881.27 254.00 882.56 254.00 883.86 254.00 C 883.85 255.00 883.85 256.98 883.84 257.97 Z" />
<path fill="#ffffff" opacity="1.00" d=" M 905.34 262.88 C 906.06 258.79 908.54 254.55 912.70 253.24 C 915.58 252.81 919.01 252.59 921.32 254.74 C 923.75 256.61 925.00 259.65 925.10 262.67 C 923.87 262.77 922.66 262.88 921.46 262.99 C 921.09 260.62 920.46 257.88 918.13 256.70 C 915.71 255.09 912.15 256.51 910.98 259.01 C 908.94 262.63 909.20 267.08 909.80 271.06 C 910.30 274.34 913.20 277.81 916.82 276.80 C 919.88 276.03 920.97 272.75 921.50 270.00 C 922.70 270.12 923.91 270.23 925.13 270.35 C 924.97 274.26 922.63 278.07 918.97 279.58 C 915.72 280.38 911.67 280.39 909.22 277.76 C 905.16 274.02 904.64 268.04 905.34 262.88 Z" />
<path fill="#ffffff" opacity="1.00" d=" M 935.51 253.71 C 939.30 252.34 944.30 252.60 947.15 255.80 C 950.00 258.73 950.72 263.04 950.78 266.97 C 944.77 267.03 938.77 266.98 932.77 267.01 C 932.64 270.47 933.41 274.77 937.08 276.16 C 940.72 278.37 945.31 275.80 946.61 272.05 C 947.78 272.16 948.97 272.27 950.18 272.39 C 948.80 280.98 935.64 282.74 931.00 275.87 C 926.23 269.09 927.46 257.46 935.51 253.71 M 932.68 263.98 C 937.26 264.02 941.85 264.00 946.44 263.99 C 946.53 259.93 943.37 255.30 938.92 256.11 C 935.07 256.74 933.34 260.54 932.68 263.98 Z" />
<path fill="#ffffff" opacity="1.00" d=" M 657.17 254.11 C 658.60 254.06 660.05 254.04 661.50 254.05 C 662.97 260.37 665.14 266.51 666.55 272.85 C 668.16 266.58 669.85 260.32 671.40 254.03 C 672.52 254.01 673.65 253.99 674.79 253.98 C 676.64 259.91 678.10 265.94 679.97 271.87 C 680.07 272.34 680.52 272.51 680.96 272.61 L 680.43 271.40 C 682.09 265.59 683.86 259.82 685.43 253.99 C 686.59 254.00 687.76 254.02 688.95 254.04 C 686.42 262.32 684.29 270.72 681.80 279.01 C 680.63 279.00 679.46 279.00 678.31 278.99 C 676.52 272.94 674.89 266.83 673.06 260.79 C 671.21 266.80 670.05 273.01 668.15 278.99 C 666.92 279.00 665.70 278.98 664.49 278.92 C 662.19 270.62 659.88 262.30 657.17 254.11 Z" />
</g>
</svg>
